# xmcd
#
# Track frame offsets:
#	150
#	17516
#	29353
#	42440
#	58997
#	76535
#	93634
#	104183
#	115666
#	128144
#	140284
#	152119
#	166423
#	186900
#	204111
#	216350
#	230180
#	245090
#
# Disc length: 3512 seconds
#
# Revision: 0
# Processed by: cddbd v1.5.2PL0 Copyright (c) Steve Scherf et al.
# Submitted via: EasyCDDAExtractor 16.0.1.1
#
DISCID=000db612
DTITLE=Various Artists / Compact Disc Club - Cine Diamonds (2009)
DYEAR=2009
DGENRE=Soundtrack
TTITLE0=Natalia Avelon & Ville Valo  / Summer Wine
TTITLE1=Nancy Sinatra & Billy Strange  / Bang Bang
TTITLE2=Lyle & Mcguinness  / Always On My Mind
TTITLE3=Righteous Brothers  /  You’Ve Lost That Lovin' Feelin' 
TTITLE4=The Posies & Burt Bacharach  / What The World Needs Now Is Love
TTITLE5=Dusty Springfield  / The Windmills Of Your Mind
TTITLE6=Phil Phillips & The Twilights  / Sea Of Love
TTITLE7=Ketty Lester  / Love Letters
TTITLE8=Patti Page  / Old Cape Cod
TTITLE9=Lulu  / To Sir With Love
TTITLE10=Tammy Wynette  / Stand By Your Man
TTITLE11=Anne Murray  / Could I Have This Dance
TTITLE12=The Youngbloods  / Let’S Get Together
TTITLE13=The Byrds  / Turn, Turn, Turn
TTITLE14=Randy Newman  / Mr. President (Have Pity On The Working Man)
TTITLE15=Cher & Sonny  /  I Got You Babe 
TTITLE16=Three Dog Night  / Shambala
TTITLE17=Procol Harum  / A Whiter Shade Of Pale
EXTD=
EXTT0=
EXTT1=
EXTT2=
EXTT3=
EXTT4=
EXTT5=
EXTT6=
EXTT7=
EXTT8=
EXTT9=
EXTT10=
EXTT11=
EXTT12=
EXTT13=
EXTT14=
EXTT15=
EXTT16=
EXTT17=
PLAYORDER=
